<svg xmlns="http://www.w3.org/2000/svg" width="109" height="19">
    <path fill="#FFF" fill-rule="evenodd" d="M104.604 2.306v15.749h-2.136V2.306h-3.797V.557h9.73v1.749h-3.797zm-8.223 9.262a3.056 3.056 0 0 1-1.4 1.05c-.562.209-1.23.313-2.005.313-.364 0-.776-.025-1.234-.075a11.04 11.04 0 0 1-1.14-.175v5.374h-2.136V.806a10.751 10.751 0 0 1 1.816-.387c.609-.075 1.27-.113 1.982-.113.949 0 1.756.105 2.42.313.665.208 1.203.554 1.614 1.037.411.484.712 1.125.902 1.925.19.8.285 1.792.285 2.975 0 1.217-.091 2.233-.273 3.05-.182.817-.459 1.471-.831 1.962zm-1.21-7.262c-.119-.6-.305-1.075-.558-1.425a2.024 2.024 0 0 0-.961-.737c-.388-.142-.851-.213-1.388-.213h-1.662v9.25h1.662c.537 0 1-.071 1.388-.213.388-.141.708-.387.961-.737s.439-.825.558-1.425c.119-.6.178-1.35.178-2.25 0-.9-.059-1.65-.178-2.25zm-12.044 9.25H78.38l-1.067 4.499h-2.136L79.211.557h3.085l4.035 17.498h-2.136l-1.068-4.499zm-2.326-10.5h-.095l-1.969 8.75h4.034l-1.97-8.75zm-10.252 2h-.119l-3.441 10.749h-2.135L61.412 5.056h-.118l-.712 12.999h-2.136L59.395.557h2.61l3.869 11.999h.095L69.837.557h2.611l.949 17.498h-2.136l-.712-12.999zM54.601 16.43c-.443.684-.977 1.167-1.602 1.45-.625.283-1.341.425-2.147.425-.807 0-1.523-.142-2.148-.425-.626-.283-1.16-.766-1.602-1.45-.443-.683-.78-1.603-1.009-2.762-.229-1.158-.344-2.612-.344-4.362s.115-3.204.344-4.362c.229-1.158.566-2.079 1.009-2.763.442-.683.976-1.166 1.602-1.45.625-.283 1.341-.425 2.148-.425.806 0 1.522.142 2.147.425.625.284 1.159.767 1.602 1.45.443.684.779 1.605 1.009 2.763.229 1.158.344 2.612.344 4.362s-.115 3.204-.344 4.362c-.23 1.159-.566 2.079-1.009 2.762zM53.569 5.606c-.166-.966-.384-1.733-.653-2.3-.269-.566-.585-.958-.949-1.175a2.163 2.163 0 0 0-1.115-.325c-.38 0-.752.109-1.116.325-.364.217-.68.609-.949 1.175-.269.567-.487 1.334-.653 2.3-.166.967-.249 2.2-.249 3.7s.083 2.733.249 3.7c.166.966.384 1.733.653 2.299.269.567.585.959.949 1.175.364.217.736.325 1.116.325.379 0 .751-.108 1.115-.325.364-.216.68-.608.949-1.175.269-.566.487-1.333.653-2.299.166-.967.249-2.2.249-3.7s-.083-2.733-.249-3.7zm-12.804 4.45h-4.984v7.999h-2.135V.557h2.135v7.749h4.984V.557h2.136v17.498h-2.136v-7.999zm-11.272 7.999l-2.967-7.499-2.966 7.499h-2.136l3.56-8.999L21.78.557h2.136l2.61 6.999L29.137.557h2.136l-3.204 8.499 3.56 8.999h-2.136zM12.05.557h8.069v1.749h-5.933v5.75h5.221v1.75h-5.221v6.499h5.933v1.75H12.05V.557zM6.354 18.055H4.218V2.306H.421V.557h9.73v1.749H6.354v15.749z"/>
</svg>
